# xmcd
#
# Track frame offsets:
#       150
#       16951
#       34095
#       50734
#       68248
#       93363
#       112391
#       127860
#       145114
#       164355
#       166581
#       171029
#       174770
#       177616
#       180160
#       183006
#       185951
#       189322
#       191543
#       194852
#       196751
#       200205
#       202577
#       205579
#       208445
#       210750
#       213538
#       216404
#       218620
#       222319
#       223765
#       225065
#       226995
#       230429
#       255290
#       273829
#       282934
#       294797
#       303267
#       316598
#
# Disc length: 4534 seconds
#
# Revision: 0
# Processed by: cddbd v1.5.2PL0 Copyright (c) Steve Scherf et al.
# Submitted via: WaveLab 6.11
#
DISCID=4511b428
DTITLE=Maria Szymanowska - AP0281 Maria Szymanowska - Complete Piano Works 1
DYEAR=2013
DGENRE=classical
TTITLE0=M. Szymanowska - 6 Menuets - 1 - in A minor
TTITLE1=M. Szymanowska - 6 Menuets - 2 - in G minor
TTITLE2=M. Szymanowska - 6 Menuets - 3 - in E flat major
TTITLE3=M. Szymanowska - 6 Menuets - 4 - in G minor
TTITLE4=M. Szymanowska - 6 Menuets - 5 - in E major
TTITLE5=M. Szymanowska - 6 Menuets - 6 - in D minor
TTITLE6=M. Szymanowska - Polonaise sur l'air national
TTITLE7=M. Szymanowska - Le Murmure. Nocturne
TTITLE8=M. Szymanowska - Danse Polonaise
TTITLE9=M. Szymanowska - 24 Mazurkas - 01 - in C major
TTITLE10=M. Szymanowska - 24 Mazurkas - 02 - in F major
TTITLE11=M. Szymanowska - 24 Mazurkas - 03 - in C major
TTITLE12=M. Szymanowska - 24 Mazurkas - 04 - in F major
TTITLE13=M. Szymanowska - 24 Mazurkas - 05 - in C major
TTITLE14=M. Szymanowska - 24 Mazurkas - 06 - in G major
TTITLE15=M. Szymanowska - 24 Mazurkas - 07 - in D major
TTITLE16=M. Szymanowska - 24 Mazurkas - 08 - in D major
TTITLE17=M. Szymanowska - 24 Mazurkas - 09 - in G major
TTITLE18=M. Szymanowska - 24 Mazurkas - 10 - in C major
TTITLE19=M. Szymanowska - 24 Mazurkas - 11 - in F major
TTITLE20=M. Szymanowska - 24 Mazurkas - 12 - in B flat major
TTITLE21=M. Szymanowska - 24 Mazurkas - 13 - in B flat major
TTITLE22=M. Szymanowska - 24 Mazurkas - 14 - in E flat major
TTITLE23=M. Szymanowska - 24 Mazurkas - 15 - in B flat major
TTITLE24=M. Szymanowska - 24 Mazurkas - 16 - in F major
TTITLE25=M. Szymanowska - 24 Mazurkas - 17 - in C major
TTITLE26=M. Szymanowska - 24 Mazurkas - 18 - in G major
TTITLE27=M. Szymanowska - 24 Mazurkas - 19 - in C major
TTITLE28=M. Szymanowska - 24 Mazurkas - 20 - in F major
TTITLE29=M. Szymanowska - 24 Mazurkas - 21 - in C major
TTITLE30=M. Szymanowska - 24 Mazurkas - 22 - in G major
TTITLE31=M. Szymanowska - 24 Mazurkas - 23 - in D major
TTITLE32=M. Szymanowska - 24 Mazurkas - 24 - in D major
TTITLE33=M. Szymanowska - Cotillon ou Valse figuree
TTITLE34=M. Szymanowska - Le Murmure. Nocturne a 3 mains
TTITLE35=M. Szymanowska - 4 Valses - 1 - in F major
TTITLE36=M. Szymanowska - 4 Valses - 2 - in F minor
TTITLE37=M. Szymanowska - 4 Valses - 3 - in F major
TTITLE38=M. Szymanowska - 4 Valses - 4 - in G major
TTITLE39=M. Szymanowska - Nocturne in B flat major
EXTD=
EXTT0=
EXTT1=
EXTT2=
EXTT3=
EXTT4=
EXTT5=
EXTT6=
EXTT7=
EXTT8=
EXTT9=
EXTT10=
EXTT11=
EXTT12=
EXTT13=
EXTT14=
EXTT15=
EXTT16=
EXTT17=
EXTT18=
EXTT19=
EXTT20=
EXTT21=
EXTT22=
EXTT23=
EXTT24=
EXTT25=
EXTT26=
EXTT27=
EXTT28=
EXTT29=
EXTT30=
EXTT31=
EXTT32=
EXTT33=
EXTT34=
EXTT35=
EXTT36=
EXTT37=
EXTT38=
EXTT39=
PLAYORDER=
